<svg width="185" height="81" viewBox="0 0 185 81" fill="none" xmlns="http://www.w3.org/2000/svg">
<g filter="url(#filter0_d_210_28)">
<path d="M36.3 3.4C41.3667 3.4 46.0333 4.66666 50.3 7.19999C54.6333 9.73333 58.0667 13.1667 60.6 17.5C63.1333 21.7667 64.4 26.4333 64.4 31.5V44.9C64.4 49.9667 63.1333 54.6667 60.6 59C58.0667 63.2667 54.6333 66.6667 50.3 69.2C46.0333 71.7333 41.3667 73 36.3 73H10.6V3.4H36.3ZM60.7 31.5C60.7 27.1 59.6 23.0333 57.4 19.3C55.2 15.5667 52.2 12.6 48.4 10.4C44.6667 8.2 40.6 7.1 36.2 7.1H14.3V69.3H36.2C40.6 69.3 44.6667 68.2 48.4 66C52.2 63.8 55.2 60.8333 57.4 57.1C59.6 53.3667 60.7 49.3 60.7 44.9V31.5Z" fill="#112C3C"/>
<path d="M71.1879 24.32H83.4379V25.245H72.1129V32.295H81.9629V33.22H72.1129V40.795H83.4379V41.72H71.1879V24.32ZM88.8937 41.72V24.32H89.8687L102.019 36.12V24.32H102.944V41.72H102.019V37.42L89.8187 25.52V41.72H88.8937ZM121.225 24.32V25.245H114.65V41.72H113.75V25.245H107.175V24.32H121.225ZM132.23 24.32H133.205L140.355 41.72H139.355L137.005 35.97H128.43L126.055 41.72H125.08L132.23 24.32ZM128.805 35.07H136.63L132.705 25.52L128.805 35.07ZM145.836 41.72V24.32H146.761V40.795H158.886V41.72H145.836ZM71.4129 49.32H84.3879V50.245H72.3379V57.545H82.0879V58.47H72.3379V66.72H71.4129V49.32ZM95.2187 49.32H96.1937L103.344 66.72H102.344L99.9937 60.97H91.4187L89.0437 66.72H88.0687L95.2187 49.32ZM91.7937 60.07H99.6187L95.6937 50.52L91.7937 60.07ZM108.1 66.72H107.175V49.32H108.175L114.25 60.045L120.3 49.32H121.225V66.72H120.3V51.17L114.675 61.095H113.8L108.1 51.045V66.72ZM138.355 49.32V50.245H133.155V65.795H138.355V66.72H127.08V65.795H132.255V50.245H127.08V49.32H138.355ZM145.836 66.72V49.32H146.761V65.795H158.886V66.72H145.836ZM163.567 49.32L169.742 58.62L175.867 49.32H176.967L170.192 59.595V66.72H169.267V59.595L162.467 49.32H163.567Z" fill="#112C3C"/>
</g>
<defs>
<filter id="filter0_d_210_28" x="6.59998" y="3.3999" width="174.367" height="77.6001" filterUnits="userSpaceOnUse" color-interpolation-filters="sRGB">
<feFlood flood-opacity="0" result="BackgroundImageFix"/>
<feColorMatrix in="SourceAlpha" type="matrix" values="0 0 0 0 0 0 0 0 0 0 0 0 0 0 0 0 0 0 127 0" result="hardAlpha"/>
<feOffset dy="4"/>
<feGaussianBlur stdDeviation="2"/>
<feComposite in2="hardAlpha" operator="out"/>
<feColorMatrix type="matrix" values="0 0 0 0 0 0 0 0 0 0 0 0 0 0 0 0 0 0 0.25 0"/>
<feBlend mode="normal" in2="BackgroundImageFix" result="effect1_dropShadow_210_28"/>
<feBlend mode="normal" in="SourceGraphic" in2="effect1_dropShadow_210_28" result="shape"/>
</filter>
</defs>
</svg>
